<svg width="500" height="120" viewBox="0 0 500 120" xmlns="http://www.w3.org/2000/svg">
  <defs>
    <style>
      .stars { fill: #2563eb; }
      .text { fill: #2563eb; font-family: Arial, sans-serif; font-weight: bold; font-size: 36px; }
    </style>
  </defs>
  
  <!-- Stars cluster -->
  <g class="stars">
    <path d="M30,30 L36,15 L42,30 L60,30 L45,45 L51,60 L36,48 L21,60 L27,45 L12,30 Z" />
    <path d="M55,22 L61,7 L67,22 L85,22 L70,37 L76,52 L61,40 L46,52 L52,37 L37,22 Z" />
    <path d="M80,30 L86,15 L92,30 L110,30 L95,45 L101,60 L86,48 L71,60 L77,45 L62,30 Z" />
    <path d="M35,55 L41,40 L47,55 L65,55 L50,70 L56,85 L41,73 L26,85 L32,70 L17,55 Z" />
    <path d="M60,47 L66,32 L72,47 L90,47 L75,62 L81,77 L66,65 L51,77 L57,62 L42,47 Z" />
    <path d="M85,55 L91,40 L97,55 L115,55 L100,70 L106,85 L91,73 L76,85 L82,70 L67,55 Z" />
    <path d="M40,80 L46,65 L52,80 L70,80 L55,95 L61,110 L46,98 L31,110 L37,95 L22,80 Z" />
    <path d="M65,72 L71,57 L77,72 L95,72 L80,87 L86,102 L71,90 L56,102 L62,87 L47,72 Z" />
    <path d="M90,80 L96,65 L102,80 L120,80 L105,95 L111,110 L96,98 L81,110 L87,95 L72,80 Z" />
  </g>
  
  <!-- Text "next jeel" -->
  <text x="150" y="80" class="text">next jeel</text>
  
  <!-- Arabic text "جيل" -->
  <text x="400" y="80" class="text" text-anchor="end" dir="rtl">جيل</text>
</svg>
