<svg width="200" height="60" viewBox="0 0 200 60" xmlns="http://www.w3.org/2000/svg">
  <defs>
    <style>
      .stars { fill: #2563eb; }
      .text { fill: #2563eb; font-family: Arial, sans-serif; font-weight: bold; font-size: 24px; }
    </style>
  </defs>
  
  <!-- Stars cluster -->
  <g class="stars">
    <path d="M15,15 L18,8 L21,15 L28,15 L22,20 L25,27 L18,22 L11,27 L14,20 L8,15 Z" />
    <path d="M25,10 L28,3 L31,10 L38,10 L32,15 L35,22 L28,17 L21,22 L24,15 L18,10 Z" />
    <path d="M35,15 L38,8 L41,15 L48,15 L42,20 L45,27 L38,22 L31,27 L34,20 L28,15 Z" />
    <path d="M20,25 L23,18 L26,25 L33,25 L27,30 L30,37 L23,32 L16,37 L19,30 L13,25 Z" />
    <path d="M30,20 L33,13 L36,20 L43,20 L37,25 L40,32 L33,27 L26,32 L29,25 L23,20 Z" />
    <path d="M40,25 L43,18 L46,25 L53,25 L47,30 L50,37 L43,32 L36,37 L39,30 L33,25 Z" />
    <path d="M25,35 L28,28 L31,35 L38,35 L32,40 L35,47 L28,42 L21,47 L24,40 L18,35 Z" />
    <path d="M35,30 L38,23 L41,30 L48,30 L42,35 L45,42 L38,37 L31,42 L34,35 L28,30 Z" />
    <path d="M45,35 L48,28 L51,35 L58,35 L52,40 L55,47 L48,42 L41,47 L44,40 L38,35 Z" />
  </g>
  
  <!-- Text "next jeel" -->
  <text x="65" y="40" class="text">next jeel</text>
  
  <!-- Arabic text "جيل" -->
  <text x="160" y="40" class="text" text-anchor="end" dir="rtl">جيل</text>
</svg>
