<svg width="250" height="75" viewBox="0 0 250 75" xmlns="http://www.w3.org/2000/svg">
  <defs>
    <style>
      .stars { fill: #2563eb; }
      .text { fill: #2563eb; font-family: Arial, sans-serif; font-weight: bold; font-size: 28px; }
    </style>
  </defs>
  
  <!-- Stars cluster -->
  <g class="stars">
    <path d="M20,20 L24,10 L28,20 L38,20 L30,28 L34,38 L24,30 L14,38 L18,28 L10,20 Z" />
    <path d="M35,15 L39,5 L43,15 L53,15 L45,23 L49,33 L39,25 L29,33 L33,23 L25,15 Z" />
    <path d="M50,20 L54,10 L58,20 L68,20 L60,28 L64,38 L54,30 L44,38 L48,28 L40,20 Z" />
    <path d="M25,35 L29,25 L33,35 L43,35 L35,43 L39,53 L29,45 L19,53 L23,43 L15,35 Z" />
    <path d="M40,30 L44,20 L48,30 L58,30 L50,38 L54,48 L44,40 L34,48 L38,38 L30,30 Z" />
    <path d="M55,35 L59,25 L63,35 L73,35 L65,43 L69,53 L59,45 L49,53 L53,43 L45,35 Z" />
    <path d="M30,50 L34,40 L38,50 L48,50 L40,58 L44,68 L34,60 L24,68 L28,58 L20,50 Z" />
    <path d="M45,45 L49,35 L53,45 L63,45 L55,53 L59,63 L49,55 L39,63 L43,53 L35,45 Z" />
    <path d="M60,50 L64,40 L68,50 L78,50 L70,58 L74,68 L64,60 L54,68 L58,58 L50,50 Z" />
  </g>
  
  <!-- Text "next jeel" -->
  <text x="85" y="50" class="text">next jeel</text>
  
  <!-- Arabic text "جيل" -->
  <text x="200" y="50" class="text" text-anchor="end" dir="rtl">جيل</text>
</svg>
