<svg width="100" height="100" viewBox="0 0 100 100" xmlns="http://www.w3.org/2000/svg">
  <defs>
    <radialGradient id="gradient" cx="50%" cy="50%" r="50%">
      <stop offset="0%" style="stop-color:#14b8a6;stop-opacity:1" />
      <stop offset="100%" style="stop-color:#1e40af;stop-opacity:1" />
    </radialGradient>
  </defs>
  
  <!-- Circle background -->
  <circle cx="50" cy="50" r="50" fill="url(#gradient)" />
  
  <!-- Africa silhouette -->
  <path d="M50,15 C38,18 30,25 25,35 C20,45 25,55 32,62 C38,65 45,68 52,65 C58,62 62,55 60,45 C58,35 55,25 50,15 Z" fill="white" />
  
  <!-- Bridge -->
  <path d="M30,35 Q50,28 70,35" stroke="white" stroke-width="2.5" fill="none" />
  <path d="M35,38 Q50,32 65,38" stroke="white" stroke-width="1.5" fill="none" />
  
  <!-- Circuit patterns -->
  <g fill="white" opacity="0.9">
    <rect x="15" y="85" width="3" height="3" />
    <rect x="25" y="88" width="3" height="3" />
    <rect x="35" y="85" width="3" height="3" />
    <rect x="45" y="88" width="3" height="3" />
    <rect x="55" y="85" width="3" height="3" />
    <rect x="65" y="88" width="3" height="3" />
    <rect x="75" y="85" width="3" height="3" />
    <rect x="85" y="88" width="3" height="3" />
    
    <rect x="12" y="92" width="5" height="2" />
    <rect x="22" y="92" width="5" height="2" />
    <rect x="32" y="92" width="5" height="2" />
    <rect x="42" y="92" width="5" height="2" />
    <rect x="52" y="92" width="5" height="2" />
    <rect x="62" y="92" width="5" height="2" />
    <rect x="72" y="92" width="5" height="2" />
    <rect x="82" y="92" width="5" height="2" />
  </g>
</svg>
