<svg width="120" height="120" viewBox="0 0 120 120" xmlns="http://www.w3.org/2000/svg">
  <defs>
    <radialGradient id="gradient" cx="50%" cy="50%" r="50%">
      <stop offset="0%" style="stop-color:#14b8a6;stop-opacity:1" />
      <stop offset="100%" style="stop-color:#1e40af;stop-opacity:1" />
    </radialGradient>
  </defs>
  
  <!-- Circle background -->
  <circle cx="60" cy="60" r="60" fill="url(#gradient)" />
  
  <!-- Africa silhouette -->
  <path d="M60,20 C45,25 35,35 30,50 C25,65 30,80 40,90 C50,95 60,100 70,95 C80,90 85,75 80,60 C75,45 70,30 60,20 Z" fill="white" />
  
  <!-- Bridge -->
  <path d="M35,45 Q60,35 85,45" stroke="white" stroke-width="3" fill="none" />
  <path d="M40,50 Q60,40 80,50" stroke="white" stroke-width="2" fill="none" />
  
  <!-- Circuit patterns -->
  <g fill="white" opacity="0.8">
    <rect x="20" y="100" width="4" height="4" />
    <rect x="30" y="105" width="4" height="4" />
    <rect x="40" y="100" width="4" height="4" />
    <rect x="50" y="105" width="4" height="4" />
    <rect x="60" y="100" width="4" height="4" />
    <rect x="70" y="105" width="4" height="4" />
    <rect x="80" y="100" width="4" height="4" />
    <rect x="90" y="105" width="4" height="4" />
  </g>
</svg>
