<?xml version="1.0" standalone="no"?>
<!DOCTYPE svg PUBLIC "-//W3C//DTD SVG 20010904//EN"
 "http://www.w3.org/TR/2001/REC-SVG-20010904/DTD/svg10.dtd">
<svg version="1.0" xmlns="http://www.w3.org/2000/svg"
 width="754.000000pt" height="430.000000pt" viewBox="0 0 754.000000 430.000000"
 preserveAspectRatio="xMidYMid meet">

<g transform="translate(0.000000,430.000000) scale(0.100000,-0.100000)"
fill="#000000" stroke="none">
<path d="M1409 3584 c-69 -28 -64 74 -64 -1443 0 -1294 1 -1378 18 -1408 28
-51 57 -55 441 -51 l341 3 47 28 c43 25 90 79 114 132 5 11 11 316 14 689 l5
668 261 -258 c143 -143 336 -337 430 -433 186 -192 285 -272 409 -332 133 -64
251 -89 421 -89 265 0 421 55 629 223 44 36 227 212 408 391 180 179 332 326
337 326 6 0 10 -205 10 -568 0 -618 1 -627 56 -699 15 -19 48 -45 73 -57 44
-20 64 -21 386 -24 386 -4 408 -1 438 58 16 33 17 116 15 1412 l-3 1378 -33
32 -32 33 -1373 3 c-1016 2 -1379 -1 -1400 -9 -15 -7 -37 -23 -47 -37 -19 -24
-20 -42 -20 -386 0 -359 0 -361 24 -412 24 -53 68 -94 121 -114 21 -8 160 -11
481 -10 413 1 453 0 469 -16 16 -16 15 -19 -17 -42 -18 -13 -134 -127 -258
-252 -124 -125 -235 -233 -247 -239 -20 -10 -78 47 -763 738 -561 567 -751
753 -781 765 -57 23 -855 23 -910 0z m4211 -314 l61 -190 200 0 c113 0 198 -4
195 -9 -3 -5 -76 -59 -161 -121 -86 -62 -154 -118 -152 -124 34 -94 118 -358
114 -362 -2 -3 -76 47 -163 110 -92 67 -163 112 -169 107 -76 -59 -307 -222
-310 -219 -2 2 23 87 55 188 33 102 60 186 60 187 0 1 -73 55 -162 120 l-163
118 202 3 202 2 63 190 c34 105 64 190 65 190 1 0 30 -85 63 -190z"/>
<path d="M5541 3151 c-7 -24 -15 -49 -18 -57 -4 -10 4 -14 32 -14 35 0 37 1
31 26 -4 15 -13 40 -19 57 l-13 30 -13 -42z"/>
<path d="M5280 2996 c0 -2 22 -20 49 -39 l49 -36 11 31 c17 47 15 48 -49 48
-33 0 -60 -2 -60 -4z"/>
<path d="M5474 2943 c-9 -32 -18 -61 -20 -65 -3 -4 19 -25 48 -47 l52 -40 51
37 c27 19 52 37 54 38 1 2 -7 32 -19 68 l-22 66 -64 0 -63 0 -17 -57z"/>
<path d="M5714 2984 c3 -9 9 -27 12 -40 l6 -24 45 32 c24 18 47 36 49 40 3 5
-23 8 -56 8 -53 0 -61 -2 -56 -16z"/>
<path d="M5406 2733 c-9 -25 -14 -49 -11 -51 3 -4 35 17 84 54 5 4 -41 43 -51
44 -3 0 -13 -21 -22 -47z"/>
<path d="M5657 2761 l-28 -18 47 -38 46 -38 -7 34 c-8 36 -23 79 -27 79 -2 0
-16 -8 -31 -19z"/>
</g>
</svg>
