<?xml version="1.0" encoding="UTF-8"?>
<svg width="256px" height="256px" viewBox="0 0 256 256" version="1.1" xmlns="http://www.w3.org/2000/svg" xmlns:xlink="http://www.w3.org/1999/xlink">
    <!-- Generator: Sketch 54.1 (76490) - https://sketchapp.com -->
    <title>GlovoLarge</title>
    <desc>Created with Sketch.</desc>
    <g id="GlovoLarge" stroke="none" stroke-width="1" fill="none" fill-rule="evenodd">
        <rect fill="#FCD33C" x="0" y="0" width="256" height="256"></rect>
        <g id="logo_green" transform="translate(40.000000, 89.000000)" fill="#00A082">
            <path d="M0.0713513514,36.933625 L0.0713513514,36.824375 C0.0713513514,26.0691875 8.44324324,16.9610625 20.2233514,16.9610625 C26.0848649,16.9610625 29.9913514,18.3314375 33.5648649,20.8560625 C34.4412391,21.4961667 34.9597439,22.5149443 34.960973,23.5991875 C34.960973,25.4113125 33.4542703,26.9479375 31.5551351,26.9479375 C30.6620541,26.9479375 29.9925405,26.5631875 29.4336216,26.1784375 C26.9220541,24.3686875 24.1869189,23.1598125 19.9438919,23.1598125 C12.7433514,23.1598125 7.27308108,29.362125 7.27308108,36.7139375 L7.27308108,36.824375 C7.27308108,44.726 12.5756757,50.542375 20.5587027,50.542375 C24.2428108,50.542375 27.5915676,49.3905 29.9925405,47.6341875 L29.9925405,40.44625 L22.288973,40.44625 C20.6134054,40.44625 19.2196757,39.185125 19.2196757,37.53925 C19.2196757,35.8921875 20.6134054,34.57525 22.288973,34.57525 L33.1748108,34.57525 C35.1274595,34.57525 36.6353514,36.05725 36.6353514,37.978625 L36.6353514,48.238625 C36.6353514,50.1588125 35.8540541,51.5315625 34.2355676,52.518375 C30.8856216,54.7140625 26.1966486,56.688875 20.3363243,56.688875 C8.10908108,56.6876875 0.0713513514,48.129375 0.0713513514,36.933625 Z M42.7917838,18.9905 C42.7917838,17.1795625 44.2425946,15.6975625 46.1393514,15.6975625 C48.0384865,15.6975625 49.5451892,17.1795625 49.5451892,18.9905 L49.5451892,53.012375 C49.5451892,54.8779375 48.0372973,56.304125 46.1393514,56.304125 C44.2984865,56.304125 42.7917838,54.879125 42.7917838,53.0111875 L42.7917838,18.9893125 L42.7917838,18.9905 Z M54.7776216,41.7085625 L54.7776216,41.5969375 C54.7776216,33.31175 61.4751351,26.45275 70.5189189,26.45275 C79.5615135,26.45275 86.2055135,33.2025 86.2055135,41.488875 L86.2055135,41.5969375 C86.2055135,49.829875 79.5068108,56.688875 70.4071351,56.688875 C61.4192432,56.688875 54.7776216,49.939125 54.7776216,41.7085625 Z M79.4509189,41.7085625 L79.4509189,41.5969375 C79.4509189,36.4954375 75.7097297,32.2703125 70.4071351,32.2703125 C64.9915676,32.2703125 61.531027,36.4408125 61.531027,41.488875 L61.531027,41.5969375 C61.531027,46.6461875 65.271027,50.8713125 70.5189189,50.8713125 C75.9891892,50.8713125 79.4497297,46.7008125 79.4497297,41.7085625 L79.4509189,41.7085625 Z M103.069405,56.5784375 L102.734054,56.5784375 C100.893189,56.5784375 99.6635676,55.4265625 98.8834595,53.6690625 L89.0607568,31.5554375 C88.8918919,31.0614375 88.6683243,30.5151875 88.6683243,29.9095625 C88.6683243,28.2636875 90.175027,26.7270625 92.0170811,26.7270625 C93.8579459,26.7270625 94.8069189,27.7696875 95.3658378,29.1424375 L102.957622,48.3466875 L110.661189,29.0331875 C111.164216,27.880125 112.056108,26.7270625 113.843459,26.7270625 C115.685514,26.7270625 117.136324,28.0998125 117.136324,29.9095625 C117.136324,30.5151875 116.913946,31.1730625 116.747459,31.5008125 L106.922378,53.67025 C106.137514,55.37075 104.912649,56.579625 103.069405,56.579625 L103.069405,56.5784375 Z M119.599135,41.7085625 L119.599135,41.5969375 C119.599135,33.31175 126.297838,26.45275 135.344,26.45275 C144.384216,26.45275 151.028216,33.2025 151.028216,41.488875 L151.028216,41.5969375 C151.028216,49.829875 144.329514,56.688875 135.229838,56.688875 C126.243135,56.688875 119.599135,49.939125 119.599135,41.7085625 Z M144.274811,41.7085625 L144.274811,41.5969375 C144.274811,36.4954375 140.533622,32.2703125 135.229838,32.2703125 C129.815459,32.2703125 126.354919,36.4408125 126.354919,41.488875 L126.354919,41.5969375 C126.354919,46.6461875 130.09373,50.8713125 135.342811,50.8713125 C140.811892,50.8713125 144.273622,46.7008125 144.273622,41.7085625 L144.274811,41.7085625 Z" id="Shape"></path>
            <path d="M162.323135,0.1508125 C155.009622,0.1508125 149.060108,6.001625 149.060108,13.1895625 C149.060108,15.9279375 149.925838,18.5570625 151.560973,20.7919375 L151.914162,21.272875 L158.818595,30.8524375 C158.818595,30.8524375 159.66173,32.2061875 161.499027,32.2061875 L163.148432,32.2061875 C164.986919,32.2061875 165.826486,30.8524375 165.826486,30.8524375 L172.733297,21.272875 L173.082919,20.7919375 C174.708988,18.5898048 175.586229,15.9256147 175.586162,13.1895625 C175.586162,6.001625 169.636649,0.1508125 162.323135,0.1508125 L162.323135,0.1508125 Z M167.781514,17.0394375 L167.414054,17.5453125 L162.324324,24.607375 L157.24173,17.5595625 L156.868324,17.04775 C156.040722,15.9309851 155.593122,14.578858 155.591135,13.1895625 C155.591135,9.540375 158.611676,6.571625 162.321946,6.571625 C166.034595,6.571625 169.053946,9.540375 169.053946,13.1895625 C169.053946,14.573 168.613946,15.9041875 167.781514,17.0394375 L167.781514,17.0394375 Z M158.592649,38.087875 L158.592649,38.06175 C158.592649,36.11425 160.165946,34.5004375 162.291027,34.5004375 C164.418486,34.5004375 165.978703,36.0869375 165.978703,38.035625 L165.978703,38.06175 C165.978703,39.995 164.404216,41.607625 162.266054,41.607625 C160.155243,41.607625 158.591459,40.0223125 158.591459,38.087875 L158.592649,38.087875 Z" id="Shape"></path>
        </g>
    </g>
</svg>